<svg width="72" height="77" viewBox="0 0 72 77" fill="none" xmlns="http://www.w3.org/2000/svg">
<path d="M58.4938 4.55233C49.1861 2.3966 36 2.45197 36 2.45197C36 2.45197 22.8139 2.3966 13.5062 4.55233C4.19813 6.70805 2.64702 12.7513 2.64702 17.656C2.64702 23.7214 2.64702 28.9834 2.64702 41.9178C2.64702 54.8518 12.142 61.281 21.7061 68.1721C26.471 71.6051 31.944 74.5478 36.0004 74.5478C40.0567 74.5478 45.0005 72.0956 50.2946 68.1721C59.7558 61.1603 69.3537 54.8518 69.3537 41.9178C69.3537 28.9837 69.3537 23.7214 69.3537 17.656C69.3533 12.7513 67.8019 6.70805 58.4938 4.55233Z" fill="#0B4AAE"/>
<path d="M54.2092 13.9613C46.6743 12.2163 36 12.261 36 12.261C36 12.261 25.3257 12.2163 17.7908 13.9613C10.2559 15.7063 9.00018 20.5987 9.00018 24.569C9.00018 29.4791 9.00018 33.7387 9.00018 44.2093C9.00018 54.6799 16.6866 59.8843 24.4289 65.4627C28.2862 68.2419 32.7168 70.6239 36.0004 70.6239C39.2839 70.6239 43.2861 68.6388 47.5718 65.4627C55.2307 59.7864 63.0005 54.6796 63.0005 44.2093C63.0005 33.7387 63.0005 29.4791 63.0005 24.569C63.0002 20.5984 61.7444 15.7063 54.2092 13.9613Z" fill="#0B3E90"/>
<path d="M67.0684 46.7848C67.0684 42.9263 63.6917 39.7981 59.5265 39.7981C57.9747 39.7981 56.5324 40.233 55.3333 40.9775C54.4851 39.8638 53.0882 39.134 51.5052 39.134C50.8154 39.134 50.1629 39.2757 49.5732 39.5235C48.4798 37.1061 45.9022 35.4075 42.8956 35.4075C41.1544 35.4075 39.5578 35.9775 38.3089 36.9265C37.016 34.7991 34.557 33.3615 31.7341 33.3615C28.2462 33.3615 25.3125 35.5555 24.4504 38.535C23.9814 38.4181 23.4904 38.3502 22.9813 38.3502C21.0039 38.3502 19.2658 39.2918 18.2547 40.7158C16.9739 38.8137 14.7018 37.5439 12.1038 37.5439C8.09884 37.5439 4.85208 40.5517 4.85208 44.2618C4.85208 45.5809 5.26835 46.8073 5.97719 47.8451C5.10156 49.0265 4.58835 50.4563 4.58835 51.9975C4.58835 56.0547 8.13881 59.3438 12.5183 59.3438C13.1052 59.3438 13.6764 59.283 14.2272 59.1709C15.1045 61.4783 17.4719 63.1348 20.2624 63.1348C22.4257 63.1348 24.3347 62.1382 25.4942 60.6163C26.4487 62.0841 28.1805 63.0688 30.1653 63.0688C32.2807 63.0688 34.1112 61.9512 35.0163 60.3204C35.0337 60.3233 35.0511 60.3253 35.0684 60.3278C35.7766 62.3577 37.8312 63.8268 40.2583 63.8268C42.668 63.8268 44.709 62.3777 45.4314 60.3703C46.38 61.722 48.0214 62.6175 49.8912 62.6175C51.9228 62.6175 53.6873 61.5617 54.5831 60.0105C55.6255 60.5683 56.8319 60.8928 58.1224 60.8928C62.0394 60.8928 65.2146 57.9513 65.2146 54.3226C65.2146 53.4541 65.0284 52.6268 64.6979 51.8681C66.1563 50.5938 67.0684 48.7886 67.0684 46.7848Z" fill="white"/>
<mask id="mask0_4_27" style="mask-type:luminance" maskUnits="userSpaceOnUse" x="2" y="2" width="68" height="73">
<path d="M58.4938 4.55233C49.1861 2.3966 36 2.45197 36 2.45197C36 2.45197 22.8139 2.3966 13.5062 4.55233C4.19813 6.70805 2.64702 12.7513 2.64702 17.656C2.64702 23.7214 2.64702 28.9834 2.64702 41.9178C2.64702 54.8518 12.142 61.281 21.7061 68.1721C26.471 71.6051 31.944 74.5478 36.0004 74.5478C40.0567 74.5478 45.0005 72.0956 50.2946 68.1721C59.7558 61.1603 69.3537 54.8518 69.3537 41.9178C69.3537 28.9837 69.3537 23.7214 69.3537 17.656C69.3533 12.7513 67.8019 6.70805 58.4938 4.55233Z" fill="white"/>
</mask>
<g mask="url(#mask0_4_27)">
<path d="M48.7737 23.5695C49.076 23.6793 49.2636 23.9561 49.2445 24.2567C49.1566 25.6406 49.0551 29.577 50.7011 29.9671C51.4509 30.1448 52.0392 30.2613 52.4816 30.3376C52.9725 30.4223 53.2387 30.9148 53.0118 31.3271C52.3992 32.4393 51.6136 34.4633 52.6716 36.2705C53.4086 37.5291 53.3606 38.3438 53.106 38.8527C52.8593 39.3455 52.1205 39.3915 51.8016 38.9354C50.526 37.1112 47.0589 31.8821 45.725 27.1248C44.3987 22.3955 47.5061 23.1089 48.7737 23.5695Z" fill="#5AA9FF"/>
<path d="M59.1339 18.3532C59.3288 18.3593 59.5317 18.5335 59.5109 18.7025C59.1943 21.2531 59.1943 21.2531 59.1565 24.3227C59.1544 24.4907 58.9407 24.6237 58.7551 24.5954C57.5487 24.4109 53.8499 24.2838 52.6157 24.2577V18.2772C53.9677 18.2907 57.7836 18.3114 59.1339 18.3532Z" fill="#5AA9FF"/>
<path d="M16.2116 27.6942C16.5003 26.8805 16.8464 26.0857 17.2547 25.317C18.7471 22.5091 20.9618 19.6974 24.2975 18.8405C26.9998 18.1462 30.7059 18.1462 34.574 18.1845C37.8569 18.217 49.8832 18.2502 52.6157 18.2772V24.2577C49.9693 24.2013 47.3258 24.6121 44.9692 25.9373C43.7131 26.6436 42.7833 27.7077 42.1811 28.9409C41.5838 30.1641 41.3086 34.5406 41.1804 35.8739C41.2517 36.0181 41.2385 36.1906 41.1446 36.3068C41.1394 36.3767 41.1328 36.4465 41.1283 36.5164C41.1137 36.7414 40.7162 36.6284 40.7193 36.4356C40.7193 36.4307 40.7197 36.4256 40.7145 36.4201C37.3103 35.6292 33.7421 35.6518 30.3425 36.4488C29.9644 36.5373 29.6646 36.6029 29.6472 36.2926C29.47 33.1358 29.2698 30.9753 29.0958 29.7099C28.9547 28.6837 27.16 25.8185 24.6812 27.212C23.6638 27.784 22.9247 28.705 22.301 29.6407C21.5762 30.7284 21.0633 31.9223 20.6182 33.1281C20.5407 33.338 20.2005 33.3319 20.0403 33.2318C19.1852 32.6971 18.3301 32.1624 17.475 31.6281C16.8141 31.2148 15.9159 30.8221 15.7123 30.0405C15.5191 29.2989 15.9652 28.3889 16.2116 27.6942Z" fill="#98D5FF"/>
<path d="M28.9137 37.6845C28.9811 36.3287 29.0516 34.9095 29.2928 33.5897H41.4542C41.6954 34.9095 41.7659 36.3287 41.8333 37.6845C41.9261 39.5563 41.9622 41.4404 41.9369 43.3196H28.8105C28.7848 41.4404 28.8209 39.5563 28.9137 37.6845Z" fill="#5AA9FF"/>
<path d="M30.682 42.5593H30.208C30.1125 42.5593 30.0343 42.4869 30.0343 42.3983V35.111C30.0343 35.0225 30.1125 34.95 30.208 34.95H30.682C30.7775 34.95 30.8557 35.0225 30.8557 35.111V42.3983C30.8557 42.4869 30.7775 42.5593 30.682 42.5593Z" fill="#2184F9"/>
<path d="M32.3248 42.5593H31.8509C31.7553 42.5593 31.6771 42.4869 31.6771 42.3983V35.111C31.6771 35.0225 31.7553 34.95 31.8509 34.95H32.3248C32.4204 34.95 32.4985 35.0225 32.4985 35.111V42.3983C32.4985 42.4869 32.4204 42.5593 32.3248 42.5593Z" fill="#2184F9"/>
<path d="M33.9676 42.5593H33.4937C33.3981 42.5593 33.32 42.4869 33.32 42.3983V35.111C33.32 35.0225 33.3981 34.95 33.4937 34.95H33.9676C34.0632 34.95 34.1414 35.0225 34.1414 35.111V42.3983C34.1414 42.4869 34.0632 42.5593 33.9676 42.5593Z" fill="#2184F9"/>
<path d="M35.6105 42.5593H35.1365C35.041 42.5593 34.9628 42.4869 34.9628 42.3983V35.111C34.9628 35.0225 35.041 34.95 35.1365 34.95H35.6105C35.706 34.95 35.7842 35.0225 35.7842 35.111V42.3983C35.7842 42.4869 35.706 42.5593 35.6105 42.5593Z" fill="#2184F9"/>
<path d="M37.2533 42.5593H36.7794C36.6838 42.5593 36.6056 42.4869 36.6056 42.3983V35.111C36.6056 35.0225 36.6838 34.95 36.7794 34.95H37.2533C37.3489 34.95 37.427 35.0225 37.427 35.111V42.3983C37.427 42.4869 37.3489 42.5593 37.2533 42.5593Z" fill="#2184F9"/>
<path d="M38.8962 42.5593H38.4222C38.3267 42.5593 38.2485 42.4869 38.2485 42.3983V35.111C38.2485 35.0225 38.3267 34.95 38.4222 34.95H38.8962C38.9917 34.95 39.0699 35.0225 39.0699 35.111V42.3983C39.0699 42.4869 38.9914 42.5593 38.8962 42.5593Z" fill="#2184F9"/>
<path d="M40.5387 42.5593H40.0647C39.9691 42.5593 39.891 42.4869 39.891 42.3983V35.111C39.891 35.0225 39.9691 34.95 40.0647 34.95H40.5387C40.6342 34.95 40.7124 35.0225 40.7124 35.111V42.3983C40.7124 42.4869 40.6342 42.5593 40.5387 42.5593Z" fill="#2184F9"/>
<path d="M17.4704 29.3658C17.4479 29.3658 17.4249 29.3623 17.4023 29.3546C17.2991 29.3198 17.2456 29.2139 17.2832 29.118C17.3648 28.9094 19.3141 23.9834 21.6109 22.1741C24.7093 19.7335 28.4672 19.7222 31.7824 19.7126C32.5573 19.7103 33.2887 19.7081 34.0055 19.6781C37.8548 19.5165 50.3509 19.5957 50.4766 19.5964C50.5868 19.597 50.6754 19.6804 50.6743 19.7824C50.6737 19.8838 50.5847 19.9659 50.4752 19.9659H50.4739C50.3481 19.9649 37.8621 19.8857 34.0236 20.0473C33.2981 20.0779 32.5625 20.0798 31.7834 20.0821C28.3775 20.0921 24.8559 20.1027 21.8691 22.4557C19.6522 24.2017 17.6772 29.1943 17.6574 29.2442C17.6282 29.3192 17.5518 29.3658 17.4704 29.3658Z" fill="white"/>
<path d="M57.9705 23.4797C57.8607 23.4797 57.7721 23.3973 57.7721 23.2959V19.3723C57.7721 19.2709 57.8611 19.1885 57.9705 19.1885C58.08 19.1885 58.1689 19.2709 58.1689 19.3723V23.2959C58.1693 23.3973 58.0803 23.4797 57.9705 23.4797Z" fill="white"/>
<path d="M52.4117 38.1931C52.3405 38.1931 52.2717 38.1574 52.2359 38.095C52.2206 38.0679 50.6824 35.3621 49.1114 32.4512C47.5336 29.5274 46.6708 26.8074 46.6621 26.7801C46.6315 26.6825 46.692 26.5805 46.7973 26.5522C46.904 26.5232 47.0127 26.5798 47.0436 26.6774C47.052 26.7041 47.9054 29.3938 49.4666 32.2867C51.0361 35.1937 52.5722 37.8963 52.5875 37.9231C52.6386 38.0129 52.6014 38.1242 52.5045 38.1716C52.4749 38.1864 52.443 38.1931 52.4117 38.1931Z" fill="white"/>
<path d="M40.5001 32.3079H30.4412C30.3314 32.3079 30.2428 32.2255 30.2428 32.1241C30.2428 32.0224 30.3317 31.9403 30.4412 31.9403H40.5001C40.6095 31.9403 40.6985 32.0227 40.6985 32.1241C40.6985 32.2255 40.6099 32.3079 40.5001 32.3079Z" fill="white"/>
<path d="M40.7402 42.8177H29.9679C27.2344 42.8177 25.0182 44.8708 25.0182 47.4031V47.4395C25.0182 47.6861 25.234 47.886 25.5001 47.886H45.2469C45.513 47.886 45.7288 47.6861 45.7288 47.4395C45.7292 44.8869 43.4956 42.8177 40.7402 42.8177Z" fill="#98D5FF"/>
<path d="M40.9285 45.1206H29.7786C26.9491 45.1206 24.6555 47.1073 24.6555 49.5579V49.593C24.6555 49.8315 24.8789 50.025 25.1544 50.025H45.5937C45.8692 50.025 46.0926 49.8315 46.0926 49.593C46.0923 47.1231 43.7802 45.1206 40.9285 45.1206Z" fill="#5AA9FF"/>
<path d="M57.7829 88.8949C56.7506 83.7938 50.5493 53.307 49.6566 51.0827C48.764 48.8584 45.372 46.6341 42.1582 46.6341C38.9445 46.6341 35.3739 46.6341 35.3739 46.6341C35.3739 46.6341 31.8033 46.6341 28.5895 46.6341C25.3758 46.6341 21.9838 48.8584 21.0911 51.0827C20.1984 53.307 13.9971 83.7938 12.9648 88.8949C10.5638 100.758 17.7668 104.465 22.5689 104.465C30.6027 104.465 35.3742 104.465 35.3742 104.465C35.3742 104.465 40.1453 104.465 48.1795 104.465C52.9809 104.465 60.1839 100.758 57.7829 88.8949Z" fill="#98D5FF"/>
<path d="M50.9576 82.3569C50.2397 78.8097 45.9272 57.6085 45.3063 56.0614C44.6857 54.5147 42.3267 52.9677 40.0918 52.9677C37.8569 52.9677 35.3739 52.9677 35.3739 52.9677C35.3739 52.9677 32.8908 52.9677 30.6559 52.9677C28.421 52.9677 26.062 54.5144 25.4414 56.0614C24.8208 57.6081 20.508 78.8097 19.7902 82.3569C18.1206 90.6064 23.1297 93.1845 26.4689 93.1845C32.0559 93.1845 35.3739 93.1845 35.3739 93.1845C35.3739 93.1845 38.6918 93.1845 44.2788 93.1845C47.6184 93.1845 52.6271 90.6064 50.9576 82.3569Z" fill="#BBE2FF"/>
</g>
<mask id="mask1_4_27" style="mask-type:luminance" maskUnits="userSpaceOnUse" x="2" y="2" width="68" height="73">
<path d="M58.4938 4.55233C49.1861 2.3966 36 2.45197 36 2.45197C36 2.45197 22.8139 2.3966 13.5062 4.55233C4.19813 6.70805 2.64702 12.7513 2.64702 17.656C2.64702 23.7214 2.64702 28.9834 2.64702 41.9178C2.64702 54.8518 12.142 61.281 21.7061 68.1721C26.471 71.6051 31.944 74.5478 36.0004 74.5478C40.0567 74.5478 45.0005 72.0956 50.2946 68.1721C59.7558 61.1603 69.3537 54.8518 69.3537 41.9178C69.3537 28.9837 69.3537 23.7214 69.3537 17.656C69.3533 12.7513 67.8019 6.70805 58.4938 4.55233Z" fill="white"/>
</mask>
<g mask="url(#mask1_4_27)">
<path d="M51.2175 58.0913C49.5792 58.0913 48.0767 58.6279 46.9022 59.5212C45.6864 57.5206 43.3761 56.1674 40.7214 56.1674C37.4417 56.1674 34.6897 58.2326 33.8787 61.0341C33.4353 60.923 32.9715 60.8587 32.4902 60.8587C30.6306 60.8587 28.9961 61.7442 28.0454 63.0833C26.841 61.2945 24.7041 60.1006 22.261 60.1006C18.4948 60.1006 15.4416 62.9291 15.4416 66.4181C15.4416 69.9071 18.4948 72.7356 22.261 72.7356C22.4091 72.7356 22.5536 72.7237 22.6989 72.715C23.2326 75.4923 25.8462 77.6026 28.9974 77.6026C30.4262 77.6026 31.7411 77.1639 32.8064 76.4312C33.9635 77.7059 35.6956 78.5177 37.6342 78.5177C40.3291 78.5177 42.6228 76.9488 43.5259 74.7458C43.8476 74.8153 44.1815 74.8556 44.5262 74.8556C46.9592 74.8556 48.9318 73.0285 48.9318 70.7743C48.9318 70.621 48.921 70.4701 48.9033 70.3214C49.6268 70.5641 50.4037 70.7031 51.2175 70.7031C54.9768 70.7031 58.0244 67.8798 58.0244 64.3972C58.0244 60.9147 54.9771 58.0913 51.2175 58.0913Z" fill="white"/>
</g>
<path d="M36 77C30.748 77 24.4442 73.2515 20.0807 70.1073L19.2221 69.4896C9.77191 62.6925 0 55.6642 0 41.9178V17.656C0 9.3595 4.32809 4.15029 12.864 2.17354C22.384 -0.0314317 35.4659 -0.000529664 36.0118 0.000114123C36.5434 -0.000851558 49.6146 -0.0314317 59.136 2.17354C67.6719 4.15061 72 9.3595 72 17.656V41.9178C72 55.3176 62.603 62.2376 53.5153 68.9298C52.9934 69.3141 52.4704 69.6995 51.9475 70.0867C45.6711 74.7384 40.4542 77 36 77ZM35.9583 4.90384C35.0379 4.90384 22.7322 4.94279 14.1479 6.93113C8.02448 8.34939 5.29406 11.6569 5.29406 17.6557V41.9174C5.29406 53.2626 13.2529 58.9868 22.4688 65.6153L23.3309 66.2359C28.4985 69.9595 33.116 72.0953 36 72.0953C38.1727 72.0953 42.1294 71.0826 48.6406 66.2568C49.1677 65.866 49.6949 65.4778 50.2213 65.0903C59.0668 58.5764 66.7059 52.9504 66.7059 41.9174V17.6557C66.7059 11.6569 63.9755 8.34939 57.8521 6.93113C48.9693 4.87391 36.1439 4.90288 36.0122 4.90417C36.007 4.90417 35.9892 4.90384 35.9583 4.90384Z" fill="#77B7FF"/>
<path d="M36 74.7928C31.1823 74.7928 24.8743 70.7655 21.5435 68.3652L20.6828 67.7459C11.2716 60.9768 2.38225 54.583 2.38225 41.9174V17.6556C2.38225 10.4018 5.99976 6.03786 13.4419 4.31411C22.6738 2.1761 35.8631 2.20507 36.0014 2.20668C36.1348 2.20507 49.3241 2.17577 58.5581 4.31411C66.0002 6.03786 69.6177 10.4018 69.6177 17.6556V41.9174C69.6177 54.2521 61.0762 60.5422 52.033 67.2019C51.5093 67.5875 50.984 67.9741 50.4596 68.3629C44.7031 72.6293 39.8382 74.7928 36 74.7928ZM35.9427 2.69692C34.976 2.69692 22.4257 2.73909 13.5701 4.78988C6.39796 6.45085 2.91145 10.6593 2.91145 17.6553V41.9171C2.91145 54.3428 11.7014 60.6648 21.0074 67.358L21.8684 67.9776C25.1461 70.3397 31.3404 74.3019 36 74.3019C39.7148 74.3019 44.4682 72.1748 50.1288 67.9796C50.6539 67.5904 51.1792 67.2035 51.7032 66.8175C60.6436 60.2338 69.0882 54.0152 69.0882 41.9171V17.6553C69.0882 10.6593 65.6017 6.45085 58.4296 4.78988C49.2605 2.66634 36.1341 2.69564 36.001 2.69692C35.9965 2.69692 35.9771 2.69692 35.9427 2.69692Z" fill="#ABE3FF"/>
<path d="M24.4731 11.0723C24.9929 10.106 26.2601 9.71292 27.3032 10.1948C28.3463 10.6767 28.7702 11.8503 28.2504 12.8166C27.7302 13.7829 26.4634 14.1757 25.4203 13.6941C24.3771 13.2122 23.9532 12.0383 24.4731 11.0723Z" fill="white"/>
<path d="M16.5573 11.9221C17.4096 11.773 18.0712 11.0996 18.1852 10.2482C18.2064 10.0892 18.5024 10.0899 18.524 10.2482C18.6404 11.1 19.3155 11.7734 20.1849 11.9221C20.3809 11.9556 20.385 12.2803 20.1849 12.3106C19.3068 12.4426 18.6452 13.1002 18.5049 13.9465C18.499 13.9832 18.4771 14.0144 18.4455 14.0347C18.3596 14.0897 18.2213 14.0553 18.2036 13.9465C18.066 13.1002 17.4176 12.4426 16.557 12.3106C16.3613 12.2803 16.3651 11.9556 16.5573 11.9221Z" fill="#98D5FF"/>
<path d="M12.8533 34.6182C13.4561 34.5129 13.9242 34.0365 14.0048 33.4342C14.0197 33.3219 14.2289 33.3222 14.2442 33.4342C14.3266 34.0365 14.804 34.5129 15.419 34.6182C15.5576 34.642 15.5604 34.8715 15.419 34.8927C14.7977 34.9861 14.33 35.4512 14.2307 36.0496C14.2265 36.0757 14.2108 36.0976 14.1886 36.1121C14.1278 36.151 14.0302 36.1269 14.0176 36.0496C13.9204 35.4512 13.4617 34.9861 12.8529 34.8927C12.7146 34.8715 12.7174 34.642 12.8533 34.6182Z" fill="#98D5FF"/>
<path d="M62.6183 21.8667C63.2212 21.7614 63.6892 21.285 63.7698 20.6827C63.7848 20.5704 63.9943 20.5707 64.0096 20.6827C64.0919 21.285 64.5693 21.7614 65.1844 21.8667C65.323 21.8905 65.3258 22.12 65.1844 22.1412C64.5631 22.2346 64.0954 22.6997 63.996 23.2981C63.9919 23.3242 63.9762 23.3461 63.954 23.3606C63.8932 23.3995 63.7955 23.3751 63.783 23.2981C63.6857 22.6997 63.2271 22.2346 62.6183 22.1412C62.4797 22.12 62.4824 21.8902 62.6183 21.8667Z" fill="#98D5FF"/>
<path d="M44.0766 10.669C44.7458 10.5521 45.2653 10.0233 45.355 9.35468C45.3716 9.22978 45.6037 9.2301 45.6208 9.35468C45.7122 10.0233 46.2421 10.5521 46.9248 10.669C47.0788 10.6954 47.0819 10.9503 46.9248 10.9738C46.2355 11.0775 45.716 11.5938 45.6058 12.2582C45.601 12.2868 45.5839 12.3116 45.5593 12.3274C45.4919 12.3705 45.3834 12.3435 45.3696 12.2582C45.2615 11.5938 44.7524 11.0775 44.0766 10.9738C43.9227 10.9503 43.9255 10.6954 44.0766 10.669Z" fill="#98D5FF"/>
<path d="M12.5864 21.3101C14.6991 21.3101 16.4117 19.7235 16.4117 17.7664C16.4117 15.8092 14.6991 14.2227 12.5864 14.2227C10.4738 14.2227 8.76111 15.8092 8.76111 17.7664C8.76111 19.7235 10.4738 21.3101 12.5864 21.3101Z" fill="white"/>
<path d="M61.267 35.9602C63.5541 35.9602 65.4082 34.2426 65.4082 32.1238C65.4082 30.0051 63.5541 28.2875 61.267 28.2875C58.9799 28.2875 57.1259 30.0051 57.1259 32.1238C57.1259 34.2426 58.9799 35.9602 61.267 35.9602Z" fill="white"/>
<path d="M54.1136 15.8395C55.5381 15.8395 56.6929 14.7697 56.6929 13.4501C56.6929 12.1305 55.5381 11.0607 54.1136 11.0607C52.6891 11.0607 51.5343 12.1305 51.5343 13.4501C51.5343 14.7697 52.6891 15.8395 54.1136 15.8395Z" fill="white"/>
<path d="M11.0047 30.6579C11.0047 31.8454 9.96543 32.8082 8.68326 32.8082C7.4011 32.8082 6.36216 31.8454 6.36216 30.6579C6.36216 29.4701 7.40145 28.5073 8.68326 28.5073C9.96543 28.5073 11.0047 29.4701 11.0047 30.6579Z" fill="white"/>
</svg>
